<?xml version="1.0" encoding="utf-8"?>
<!-- Generator: Adobe Illustrator 16.0.0, SVG Export Plug-In . SVG Version: 6.00 Build 0)  -->
<!DOCTYPE svg PUBLIC "-//W3C//DTD SVG 1.1//EN" "http://www.w3.org/Graphics/SVG/1.1/DTD/svg11.dtd">
<svg version="1.1" id="Layer_1" xmlns="http://www.w3.org/2000/svg" xmlns:xlink="http://www.w3.org/1999/xlink" x="0px" y="0px"
	 width="200px" height="200px" viewBox="0 0 200 200" enable-background="new 0 0 200 200" xml:space="preserve">
<g>
	<path fill="#36C4AC" d="M187.785,0H12.215C6.847,0,2.461,4.392,2.461,9.755c0,5.364,4.385,9.753,9.753,9.753h2.261v96.564
		c0,6.992,5.689,12.681,12.683,12.681h145.68c6.99,0,12.68-5.688,12.68-12.681V19.509h2.268c5.361,0,9.754-4.389,9.754-9.753
		C197.539,4.392,193.146,0,187.785,0z M173.811,116.073c0,0.521-0.451,0.977-0.972,0.977H27.159c-0.527,0-0.979-0.456-0.979-0.977
		V19.509h147.63V116.073L173.811,116.073z"/>
	<path fill="#36C4AC" d="M149.227,37.95c-5.355,0-9.719,4.356-9.719,9.712c0,2.041,0.633,3.948,1.715,5.503l-22.478,25.873
		c-1.296-0.654-2.765-1.016-4.319-1.016c-1.716,0-3.316,0.445-4.714,1.224L99.588,68.597c0.932-1.493,1.479-3.255,1.479-5.147
		c0-5.358-4.355-9.716-9.713-9.716c-5.355,0-9.714,4.358-9.714,9.716c0,0.958,0.136,1.868,0.388,2.742L57.583,80.824
		c-1.747-1.737-4.154-2.803-6.813-2.803c-5.352,0-9.716,4.356-9.716,9.712c0,5.355,4.364,9.711,9.716,9.711
		c5.355,0,9.716-4.356,9.716-9.711c0-0.96-0.135-1.87-0.402-2.745l24.461-14.63c1.743,1.737,4.15,2.803,6.807,2.803
		c1.712,0,3.315-0.45,4.712-1.226l10.113,10.648c-0.935,1.493-1.468,3.255-1.468,5.15c0,5.355,4.35,9.711,9.716,9.711
		c5.353,0,9.712-4.356,9.712-9.711c0-2.053-0.642-3.948-1.724-5.512l22.474-25.864c1.301,0.654,2.782,1.02,4.338,1.02
		c5.353,0,9.715-4.36,9.715-9.716S154.577,37.95,149.227,37.95z M55.63,87.733c0,2.671-2.174,4.855-4.86,4.855
		c-2.68,0-4.86-2.184-4.86-4.855c0-2.682,2.18-4.856,4.86-4.856c0.864,0,1.668,0.218,2.355,0.606
		c1.468,0.814,2.463,2.367,2.505,4.165V87.733z M91.352,68.306c-0.86,0-1.672-0.221-2.367-0.606
		c-1.468-0.827-2.468-2.395-2.491-4.179V63.45c0-2.684,2.176-4.858,4.858-4.858c2.674,0,4.858,2.174,4.858,4.858
		c0,0.47-0.073,0.945-0.207,1.382c-0.485,1.641-1.836,2.938-3.523,3.34C92.114,68.257,91.742,68.306,91.352,68.306z M119.282,87.733
		c0,2.671-2.188,4.855-4.856,4.855c-2.684,0-4.855-2.184-4.855-4.855c0-0.473,0.07-0.933,0.188-1.37
		c0.485-1.666,1.851-2.953,3.533-3.353c0.369-0.083,0.743-0.133,1.135-0.133c0.313,0,0.616,0.025,0.912,0.083
		c1.71,0.329,3.115,1.554,3.679,3.182C119.186,86.638,119.282,87.175,119.282,87.733z M149.227,52.521
		c-0.318,0-0.634-0.037-0.924-0.087c-1.714-0.339-3.109-1.578-3.671-3.192c-0.171-0.5-0.263-1.035-0.263-1.581
		c0-2.682,2.183-4.856,4.855-4.856c2.683,0,4.857,2.174,4.857,4.856C154.083,50.333,151.907,52.521,149.227,52.521z"/>
	<path fill="#36C4AC" d="M164.955,184.311c-1.604,0-3.09,0.482-4.331,1.306l-57.209-29.002v-27.859h-6.83v27.859l-57.209,29.002
		c-1.241-0.822-2.729-1.306-4.331-1.306c-4.331,0-7.844,3.516-7.844,7.847c0,4.327,3.513,7.844,7.844,7.844s7.842-3.517,7.842-7.844
		c0-0.22-0.015-0.435-0.029-0.647l53.727-27.238v20.832c-2.622,1.27-4.435,3.946-4.435,7.055c0,4.326,3.513,7.844,7.85,7.844
		c4.331,0,7.842-3.518,7.842-7.844c0-3.107-1.81-5.785-4.427-7.055V164.27l53.726,27.239c-0.02,0.214-0.035,0.429-0.035,0.647
		c0,4.326,3.52,7.844,7.851,7.844s7.842-3.518,7.842-7.844C172.797,187.825,169.286,184.311,164.955,184.311z"/>
</g>
</svg>
