<?xml version="1.0" encoding="utf-8"?>
<!-- Generator: Adobe Illustrator 16.0.0, SVG Export Plug-In . SVG Version: 6.00 Build 0)  -->
<!DOCTYPE svg PUBLIC "-//W3C//DTD SVG 1.1//EN" "http://www.w3.org/Graphics/SVG/1.1/DTD/svg11.dtd">
<svg version="1.1" id="Layer_1" xmlns="http://www.w3.org/2000/svg" xmlns:xlink="http://www.w3.org/1999/xlink" x="0px" y="0px"
	 width="200px" height="200px" viewBox="0 0 200 200" enable-background="new 0 0 200 200" xml:space="preserve">
<g>
	<path fill="#36C4AC" d="M135.505,55.02c-0.269-1.174-0.921-2.286-1.948-3.184c-1.027-0.889-2.291-1.43-3.602-1.627l-21.025-4.067
		l6.082,4.038l-9.604,30.104L100,57.919l-5.41,22.365L84.992,50.18l6.08-4.038l-21.028,4.067c-1.306,0.198-2.568,0.739-3.603,1.627
		c-1.029,0.897-1.677,2.009-1.945,3.184l-6.233,27.386l11.76,4.08c3.906,4.06,14.831,7.045,27.94,7.327H100h2.039
		c13.105-0.282,24.029-3.268,27.938-7.327l11.768-4.08L135.505,55.02z"/>
	<polygon fill="#36C4AC" points="100,49.196 95.151,50.933 100,57.919 104.852,50.933 	"/>
	<path fill="#36C4AC" d="M117.995,22.233c0-12.429-5.114-22.169-17.996-22.169C87.115,0.064,82,9.804,82,22.233
		c-1.342,0.701-2.226,2.352-0.903,5.887c0.666,1.777,1.843,3.264,2.841,4.041c3.67,9.137,10.89,16.197,16.062,16.197
		s12.393-7.06,16.061-16.198c1.004-0.776,2.174-2.263,2.846-4.041C120.227,24.585,119.344,22.934,117.995,22.233z"/>
	<path fill="#36C4AC" d="M171.919,121.596c-1.081-4.186-4.972-6.897-9.133-6.638l-4.579-10.09h-56.516v-7.285h-3.384v7.285H41.789
		l-4.574,10.09c-4.163-0.261-8.053,2.452-9.135,6.638c-1.226,4.744,1.629,9.588,6.374,10.814c4.75,1.225,9.594-1.631,10.818-6.381
		c1.082-4.188-1.016-8.441-4.783-10.229l3.922-7.552h53.896v7.284c-4.092,0.793-7.186,4.39-7.186,8.716
		c0,4.902,3.974,8.876,8.878,8.876l0,0l0,0c4.905,0,8.876-3.974,8.876-8.876c0-4.326-3.091-7.923-7.184-8.712v-7.288h53.897
		l3.919,7.552c-3.766,1.788-5.859,6.043-4.781,10.229c1.224,4.75,6.065,7.604,10.812,6.381
		C170.288,131.184,173.145,126.343,171.919,121.596z M42,125.188c-0.758,2.934-3.763,4.703-6.695,3.946
		c-2.936-0.757-4.704-3.762-3.949-6.694c0.757-2.935,3.76-4.705,6.696-3.947C40.982,119.248,42.753,122.253,42,125.188z
		 M105.496,124.248c0,3.029-2.471,5.492-5.497,5.492l0,0l0,0c-3.032,0-5.497-2.463-5.497-5.492c0-3.03,2.464-5.496,5.497-5.496l0,0
		l0,0C103.025,118.752,105.496,121.218,105.496,124.248z M164.695,129.134c-2.935,0.757-5.938-1.014-6.691-3.946
		c-0.761-2.931,1.01-5.938,3.947-6.695c2.934-0.758,5.938,1.014,6.691,3.947C169.402,125.376,167.633,128.377,164.695,129.134z"/>
	<g>
		<path fill="#36C4AC" d="M51.431,174.105c-0.171-0.78-0.608-1.521-1.294-2.119c-0.685-0.596-1.525-0.952-2.396-1.086l-15.688-3.043
			c2.459-1.914,4.908-5.172,6.435-8.974c0.664-0.521,1.449-1.51,1.893-2.69c0.882-2.353,0.291-3.45-0.606-3.918
			c0-8.276-3.405-14.766-11.981-14.766c-8.578,0-11.983,6.488-11.983,14.766c-0.896,0.468-1.485,1.565-0.605,3.918
			c0.442,1.182,1.229,2.171,1.895,2.69c1.522,3.802,3.971,7.06,6.433,8.974L7.846,170.9c-0.867,0.134-1.709,0.49-2.4,1.086
			c-0.683,0.6-1.115,1.339-1.293,2.119L0,192.345l7.83,2.716c2.602,2.701,9.875,4.689,18.604,4.875h1.36h1.356
			c8.728-0.186,16.005-2.174,18.605-4.875l7.83-2.716L51.431,174.105z"/>
		<path fill="#36C4AC" d="M195.85,174.105c-0.179-0.78-0.613-1.521-1.295-2.119c-0.689-0.596-1.531-0.952-2.398-1.086l-15.689-3.043
			c2.463-1.914,4.911-5.172,6.436-8.974c0.668-0.521,1.449-1.51,1.896-2.69c0.882-2.353,0.289-3.45-0.606-3.918
			c0-8.276-3.404-14.766-11.98-14.766c-8.58,0-11.98,6.488-11.98,14.766c-0.896,0.468-1.488,1.565-0.606,3.918
			c0.442,1.182,1.228,2.171,1.892,2.69c1.531,3.802,3.979,7.06,6.438,8.974l-15.688,3.043c-0.871,0.134-1.709,0.49-2.398,1.086
			c-0.682,0.6-1.12,1.339-1.295,2.119l-4.154,18.238l7.834,2.717c2.598,2.701,9.875,4.688,18.604,4.875h1.356h1.356
			c8.726-0.187,16.003-2.174,18.604-4.875l7.831-2.717L195.85,174.105z"/>
		<path fill="#36C4AC" d="M123.643,174.105c-0.18-0.78-0.61-1.521-1.297-2.119c-0.688-0.596-1.527-0.952-2.402-1.086l-15.686-3.043
			c2.467-1.914,4.911-5.172,6.436-8.974c0.668-0.521,1.449-1.51,1.892-2.69c0.886-2.353,0.297-3.45-0.603-3.918
			c0-8.276-3.405-14.766-11.982-14.766c-8.58,0-11.983,6.488-11.983,14.766c-0.896,0.468-1.485,1.565-0.605,3.918
			c0.446,1.182,1.231,2.171,1.892,2.69c1.527,3.802,3.976,7.06,6.438,8.974L80.053,170.9c-0.871,0.134-1.711,0.49-2.4,1.086
			c-0.682,0.6-1.115,1.339-1.295,2.119l-4.151,18.238l7.833,2.717c2.6,2.701,9.875,4.688,18.603,4.875H100h1.359
			c8.728-0.187,16.005-2.174,18.604-4.875l7.834-2.717L123.643,174.105z"/>
	</g>
</g>
</svg>
