<?xml version="1.0" encoding="utf-8"?>
<!-- Generator: Adobe Illustrator 16.0.0, SVG Export Plug-In . SVG Version: 6.00 Build 0)  -->
<!DOCTYPE svg PUBLIC "-//W3C//DTD SVG 1.1//EN" "http://www.w3.org/Graphics/SVG/1.1/DTD/svg11.dtd">
<svg version="1.1" id="Layer_1" xmlns="http://www.w3.org/2000/svg" xmlns:xlink="http://www.w3.org/1999/xlink" x="0px" y="0px"
	 width="491.52px" height="491.52px" viewBox="0 0 491.52 491.52" enable-background="new 0 0 491.52 491.52" xml:space="preserve">
<g id="Layer_x0020_1">
	<g id="_465862208">
		<path fill="#E9D9A8" d="M191.006,200.51l-13.319-13.319c1.944-1.224,3.672-2.592,5.328-4.248c1.656-1.656,3.024-3.384,4.248-5.328
			l13.319,13.319c2.664,2.664,2.664,6.912,0,9.575C197.918,203.174,193.67,203.174,191.006,200.51z"/>
		<path fill="#E9D9A8" d="M311.672,311.673c4.969-4.968,11.448-7.416,17.928-7.416c6.48,0,12.959,2.448,17.928,7.416
			c4.968,4.968,7.416,11.447,7.416,17.927c0,6.48-2.448,12.959-7.416,17.928c-4.969,4.968-11.447,7.416-17.928,7.416
			c-6.479,0-12.959-2.448-17.928-7.416c-4.967-4.969-7.415-11.447-7.415-17.928C304.257,323.12,306.705,316.641,311.672,311.673z"/>
		<path fill="#E9D9A8" d="M300.514,291.01l13.318,13.318c-1.943,1.225-3.672,2.593-5.327,4.248
			c-1.655,1.656-3.024,3.385-4.248,5.328l-13.319-13.319c-2.664-2.664-2.664-6.911,0-9.575S297.85,288.346,300.514,291.01z"/>
		<path fill="#E9D9A8" d="M338.959,245.724c0-6.983,2.809-13.319,7.416-17.927s10.943-7.416,17.927-7.416
			c6.984,0,13.319,2.808,17.927,7.416c4.608,4.607,7.416,10.943,7.416,17.927s-2.808,13.319-7.416,17.926
			c-4.606,4.608-10.942,7.416-17.927,7.416c-6.983,0-13.319-2.808-17.927-7.416C341.768,259.043,338.959,252.707,338.959,245.724z"
			/>
		<path fill="#E9D9A8" d="M316.496,239.028h18.791c-0.504,2.16-0.792,4.463-0.792,6.768c0,2.304,0.288,4.536,0.792,6.769h-18.791
			c-3.744,0-6.768-3.024-6.768-6.769S312.752,239.028,316.496,239.028z"/>
		<path fill="#E9D9A8" d="M311.672,179.847c-4.967-4.968-7.415-11.448-7.415-17.927s2.448-12.959,7.415-17.927
			c4.969-4.968,11.448-7.416,17.928-7.416c6.48,0,12.959,2.448,17.928,7.416c4.968,4.968,7.416,11.448,7.416,17.927
			s-2.448,12.959-7.416,17.927c-4.969,4.968-11.447,7.416-17.928,7.416C323.12,187.263,316.641,184.815,311.672,179.847z"/>
		<path fill="#E9D9A8" d="M291.01,191.006l13.319-13.319c1.224,1.944,2.592,3.672,4.247,5.328c1.656,1.656,3.385,3.024,5.328,4.248
			l-13.319,13.319c-2.664,2.664-6.911,2.664-9.575,0S288.346,193.67,291.01,191.006z"/>
		<path fill="#E9D9A8" d="M179.847,179.847c-4.968,4.968-11.448,7.416-17.927,7.416s-12.959-2.448-17.927-7.416
			c-4.968-4.968-7.416-11.448-7.416-17.927s2.448-12.959,7.416-17.927c4.968-4.968,11.448-7.416,17.927-7.416
			s12.959,2.448,17.927,7.416c4.968,4.968,7.416,11.448,7.416,17.927S184.815,174.879,179.847,179.847z"/>
		<path fill="#E9D9A8" d="M152.488,245.724c0,6.983-2.808,13.319-7.416,17.926c-4.608,4.608-10.943,7.416-17.927,7.416
			c-6.983,0-13.319-2.808-17.927-7.416c-4.608-4.606-7.416-10.942-7.416-17.926s2.808-13.319,7.416-17.927
			c4.607-4.608,10.943-7.416,17.927-7.416s13.319,2.808,17.927,7.416C149.681,232.404,152.488,238.74,152.488,245.724z"/>
		<path fill="#E9D9A8" d="M175.023,252.491h-18.791c0.504-2.159,0.792-4.464,0.792-6.768s-0.288-4.536-0.792-6.768h18.791
			c3.744,0,6.768,3.024,6.768,6.768C181.791,249.468,178.767,252.491,175.023,252.491z"/>
		<path fill="#E9D9A8" d="M179.847,311.673c4.968,4.968,7.416,11.447,7.416,17.927c0,6.48-2.448,12.959-7.416,17.928
			c-4.968,4.968-11.448,7.416-17.927,7.416s-12.959-2.448-17.927-7.416c-4.968-4.969-7.416-11.447-7.416-17.928
			c0-6.479,2.448-12.959,7.416-17.927c4.968-4.968,11.448-7.416,17.927-7.416S174.879,306.705,179.847,311.673z"/>
		<path fill="#E9D9A8" d="M200.51,300.514l-13.319,13.318c-1.224-1.943-2.592-3.672-4.248-5.327
			c-1.656-1.656-3.384-3.024-5.328-4.248l13.319-13.319c2.664-2.664,6.912-2.664,9.575,0
			C203.174,293.602,203.174,297.85,200.51,300.514z"/>
		<path fill="#E9D9A8" d="M236.076,252.348c3.024,2.088,6.408,3.096,9.792,3.096c3.384,0,6.767-1.008,9.792-3.096
			c3.672-2.52,6.84-6.552,8.64-12.096c2.304-2.664,8.425-11.016,3.527-19.079c0.071-0.792,0.071-1.584,0.071-2.376
			c-0.071-5.472-1.871-9.936-4.967-13.247c-3.097-3.312-7.416-5.328-12.527-6.048c-1.297-0.216-2.735-0.288-4.176-0.288
			c-0.072,0-0.216,0-0.288,0l0,0h-0.072c-1.656,0-3.168,0.072-4.608,0.288c-5.184,0.72-9.503,2.808-12.527,6.048
			c-3.167,3.312-4.896,7.775-4.968,13.247c0,0.792,0,1.584,0.072,2.376c-4.824,8.063,1.296,16.416,3.528,19.079
			c1.8,5.544,4.968,9.576,8.64,12.096H236.076z M245.796,259.115c-5.112,0-10.224-1.872-14.399-5.688
			c-1.368-1.44-3.6-1.801-5.4-0.793l0,0l-12.383,6.841l-0.144,0.071l0,0l-0.072,0.072l0,0c-9.72,5.11-10.368,19.295-10.439,22.104
			c-0.216,1.942,0.936,3.887,2.88,4.606l0,0c15.695,5.903,36.358,6.118,39.454,6.047c0.072,0,0.216,0,0.288,0l0,0h0.072
			c0.936,0,22.824,0.146,39.455-5.903c1.871-0.504,3.312-2.23,3.312-4.246l0,0c0-0.072,0.359-16.561-10.151-22.393
			c-0.071-0.071-0.145-0.071-0.216-0.145l0,0l0,0l0,0l-12.168-6.694c-1.655-1.08-3.888-0.937-5.472,0.504l0,0
			c-4.248,3.887-9.432,5.76-14.615,5.76L245.796,259.115L245.796,259.115z"/>
	</g>
</g>
</svg>
