<?xml version="1.0" ?><!DOCTYPE svg  PUBLIC '-//W3C//DTD SVG 1.1//EN'  'http://www.w3.org/Graphics/SVG/1.1/DTD/svg11.dtd'><svg enable-background="new 0 0 128 128" height="128px" id="Ebene_1" version="1.1" viewBox="0 0 128 128" width="128px" xml:space="preserve" xmlns="http://www.w3.org/2000/svg" xmlns:xlink="http://www.w3.org/1999/xlink"><g><path d="M74.777,76.555c-0.617-1.354-2.01-2.26-3.6-2.26c-1.082,0-2.064,0.43-2.785,1.127l-3.846,3.82l19.268,5.375   C79.836,83.75,76.697,80.764,74.777,76.555z" fill="#534E62"/><path d="M47.302,93.927c0.248,0.048,0.503,0.077,0.766,0.077c0.353,0,0.688-0.061,1.013-0.146   c0.632-0.166,1.199-0.478,1.668-0.903l13.8-13.712l3.846-3.82c0.721-0.697,1.703-1.127,2.785-1.127c1.59,0,2.981,0.905,3.6,2.26   c1.92,4.209,5.059,7.195,9.037,8.062c8.408,1.836,17.375-6.525,20.026-18.676c1.955-8.963-0.079-17.47-4.655-22.061   c-1.625-1.631-3.564-2.779-5.771-3.261c-0.285-0.062-0.571-0.084-0.856-0.124c-1.517-0.128-4.797,0.026-7.832,3.032L66.305,61.105   l-5.358,5.111L43.945,82.438l-21.55-5.728c-0.373,0.548-0.578,1.362-0.309,2.588c0.521,2.372,0.984,4.165,0.984,4.165   c0.338,1.43,1.4,2.885,2.697,3.881c0.652,0.502,1.36,0.896,2.072,1.098L47.302,93.927z M25.206,83.805l-0.751-2.729   c-0.254-1.075,0.512-1.687,1.574-1.386l14.919,3.977c1.413,0.409,2.131,1.414,2.385,2.488l1.029,3.119   c0.254,1.074-0.402,1.703-1.465,1.402L27.59,86.293C26.528,85.993,25.46,84.879,25.206,83.805z" fill="#D1D9DA"/><path d="M44.362,89.271l-1.029-3.117c-0.254-1.075-0.972-2.08-2.385-2.489l-14.919-3.978   c-1.062-0.299-1.828,0.312-1.574,1.387l0.751,2.729c0.254,1.075,1.322,2.189,2.385,2.489l15.307,4.383   C43.96,90.977,44.616,90.348,44.362,89.271z" fill="#534E62"/><path d="M43.945,82.438l17.001-16.222l5.357-5.111l18.381-17.537c0.015-0.014,0.028-0.025,0.043-0.039   c3.035-3.006,6.315-3.16,7.832-3.032c0.537,0.046,0.856,0.124,0.856,0.124L68.18,33.5c-2.043-0.447-4.787-0.988-8.723,2.949   L22.818,76.244l-0.407,0.441l-0.021,0.022l0.005,0.001L43.945,82.438z M53.479,45.422l2.902-3.168   c0.78-0.782,2.273-1.171,3.336-0.868l16.971,4.834c1.062,0.303,1.291,1.182,0.511,1.963l-3.159,3.166   c-0.78,0.781-2.273,1.17-3.337,0.867l-16.711-4.83C52.928,47.083,52.698,46.204,53.479,45.422z" fill="#EFEFEF"/><path d="M53.99,47.386l16.711,4.83c1.062,0.303,2.557-0.086,3.337-0.867l3.159-3.166   c0.779-0.781,0.552-1.66-0.512-1.963l-16.97-4.834c-1.062-0.303-2.556,0.086-3.336,0.868l-2.902,3.168   C52.698,46.204,52.928,47.083,53.99,47.386z" fill="#22223C"/></g></svg>