<?xml version="1.0" encoding="utf-8"?>
<!-- Generator: Adobe Illustrator 16.0.0, SVG Export Plug-In . SVG Version: 6.00 Build 0)  -->
<!DOCTYPE svg PUBLIC "-//W3C//DTD SVG 1.1//EN" "http://www.w3.org/Graphics/SVG/1.1/DTD/svg11.dtd">
<svg version="1.1" id="Layer_1" xmlns="http://www.w3.org/2000/svg" xmlns:xlink="http://www.w3.org/1999/xlink" x="0px" y="0px"
	 width="64px" height="64px" viewBox="0 0 64 64" enable-background="new 0 0 64 64" xml:space="preserve">
<g id="Layer_x0020_1">
	<g id="_601268896">
		<g>
			<path fill="#FED198" d="M37.398,31.687v1.991c0,0.715,0.357,1.341,0.936,1.698l-4.363,3.526H32.11l-4.355-3.526
				c0.577-0.357,0.934-0.983,0.934-1.698v-1.682c0.236,0.162,0.479,0.317,0.739,0.463c0.463,0.276,1.958,0.959,3.413,0.959
				c1.487-0.008,2.933-0.707,3.413-0.983C36.66,32.191,37.041,31.947,37.398,31.687z"/>
			<path fill="#FED198" d="M23.603,14.511c0.284-8.174,17.858-8.889,18.143,0c0,1.95-0.024,3.656-0.073,5.175
				c0.472-0.284,1.544-0.414,1.722,0.577c0.212,1.121-0.43,5.273-2.16,4.672c-0.643,3.892-2.039,5.752-4.98,7.499
				c-0.48,0.276-1.926,0.976-3.413,0.983c-1.454,0-2.949-0.683-3.413-0.959c-2.624-1.543-4.217-3.348-5.062-7.312
				c-1.739,0.463-2.592-3.697-2.373-4.899c0.154-0.829,1.203-0.853,1.723-0.682C23.644,18.078,23.603,16.404,23.603,14.511z"/>
			<path fill="#FFDEB2" d="M23.603,14.511c0.228-6.541,11.521-8.304,16.168-4.201c0.122,0.447,0.195,0.926,0.211,1.438
				c0,3.794-0.211,7.061-0.527,10.847c-0.666,4.055-2.121,5.988-5.184,7.808c-0.496,0.292-2.007,1.016-3.551,1.024
				c-1.511,0-3.071-0.715-3.559-1c-0.252-0.146-0.496-0.301-0.731-0.463c-0.934-1.178-1.608-2.681-2.063-4.818
				c-1.739,0.463-2.592-3.697-2.373-4.899c0.154-0.829,1.203-0.853,1.723-0.682C23.644,18.078,23.603,16.404,23.603,14.511z"/>
			<path fill="#C9897B" d="M21.385,16.039c0,4.371,2.421,4.485,2.421,4.485l-0.211-5.833c-0.081-2.364-1.219-2.884-1.836-1.3
				C21.539,13.975,21.385,14.86,21.385,16.039z"/>
			<path fill="#C27767" d="M22.652,19.979c0.585,0.52,1.154,0.544,1.154,0.544l-0.211-5.833c-0.016-0.496-0.081-0.918-0.179-1.251
				c-0.325-0.073-0.69,0.22-0.951,0.902c-0.228,0.585-0.382,1.471-0.382,2.649C22.083,18.362,22.327,19.313,22.652,19.979z"/>
			<path fill="#C27767" d="M41.746,16.518c0,0-0.699-2.348-1.764-2.527c-6.297-1.064-13.633,3.656-17.68-0.203
				c-1.016-0.967-2.259-3.494-1.097-6.817c0,0,2.519,2.161,6.963,1.324c1.617-0.309,8.653-2.454,11.847,0.845
				c1.454,1.503,1.511,2.648,1.73,5.371V16.518z"/>
			<path fill="#C9897B" d="M21.206,6.971c0,0,2.519,2.161,6.963,1.324c1.617-0.309,8.653-2.454,11.847,0.845
				c0.316,0.333,0.869,0.942,1.088,1.56c-0.162,2.779-12.065,3.445-14.129,3.412C23.253,14.048,19.963,11.603,21.206,6.971z"/>
			<polygon fill="#ADD2ED" points="33.296,38.902 31.346,54.186 38.105,54.186 34.709,38.756 34.166,38.756 33.971,38.902 			"/>
			<path fill="#C9897B" d="M41.624,20.54c-0.114-4.16,0.406-3.453-1.431-6.947c-0.82-1.568,0.488-3.64,1.854-2.673
				C44.379,12.569,44.207,20.028,41.624,20.54z"/>
			<path fill="#C27767" d="M41.624,20.54c-0.114-4.16,0.406-3.453-1.431-6.947c-0.268-0.52-0.438-1.666,0.154-2.356
				c0,0.008,0,1.21,1.268,2.771C42.883,15.559,42.136,18.232,41.624,20.54z"/>
			<path fill="#ADD2ED" d="M38.334,35.376c0.162,0.098,0.341,0.179,0.535,0.228l8.158,2.234c0,0,4.347,1.275,4.777,5.225
				l0.942,8.474c0.081,0.699-0.122,1.333-0.593,1.853c-0.472,0.528-1.072,0.797-1.779,0.797c-10.92,0-23.75,0-34.669,0
				c-0.699,0-1.308-0.269-1.779-0.797c-0.463-0.52-0.667-1.153-0.593-1.853l0.942-8.474c0.439-3.949,4.777-5.225,4.777-5.225
				l8.158-2.234c0.195-0.049,0.374-0.13,0.544-0.228l4.355,3.526h1.861L38.334,35.376z"/>
			<polygon fill="#FA96A2" points="31.947,38.756 29.981,54.186 35.953,54.186 33.986,38.756 			"/>
			<polygon fill="#E67C89" points="33.125,40.227 34.58,53.763 34.369,54.186 35.953,54.186 34.011,38.951 34.003,38.878 
				33.986,38.756 32.963,38.756 32.979,38.902 			"/>
			<path fill="#9AA8AD" d="M27.21,35.604l-8.158,2.234c0,0-4.338,1.275-4.777,5.225l-0.942,8.474
				c-0.073,0.699,0.13,1.333,0.593,1.853c0.471,0.528,1.081,0.797,1.779,0.797h17.338l-3.526-11.221L27.21,35.604z"/>
			<path fill="#7D959E" d="M27.21,35.604l-8.158,2.234c0,0-2.096,0.617-3.518,2.315c0.479-0.22,0.805-0.317,0.805-0.317
				c3.851-1.056,7.743-1.641,11.643-1.771L27.21,35.604z"/>
			<path fill="#9AA8AD" d="M38.869,35.604l8.158,2.234c0,0,4.347,1.275,4.777,5.225l0.942,8.474
				c0.081,0.699-0.122,1.333-0.593,1.853c-0.472,0.528-1.072,0.797-1.779,0.797H33.044l3.519-11.221L38.869,35.604z"/>
			<path fill="#7D959E" d="M38.869,35.604l8.158,2.234c0,0,4.347,1.275,4.777,5.225l0.942,8.474
				c0.081,0.699-0.122,1.333-0.593,1.853c-0.472,0.528-1.072,0.797-1.779,0.797h-2.471c0.252-0.415,0.35-0.887,0.293-1.39
				l-0.886-8.02c-0.415-3.729-4.518-4.94-4.518-4.94c-1.634-0.446-3.267-0.804-4.907-1.088L38.869,35.604z"/>
			<path fill="#EFF4F7" d="M28.648,34.092l3.355,4.664l-2.632,3.729l-2.161-6.882C27.405,35.555,28.486,34.189,28.648,34.092z"/>
			<path fill="#EFF4F7" d="M37.439,34.092l-3.453,4.664l2.723,3.729l2.16-6.874v-0.008C38.675,35.555,37.602,34.189,37.439,34.092z"
				/>
			<g>
				<path fill="#6B605D" d="M37.813,31.687v1.991c0,0.081,0.008,0.162,0.017,0.244l0,0c0.016,0.081,0.032,0.162,0.057,0.235
					L37.082,34.4c-0.032-0.113-0.064-0.235-0.081-0.357l0,0c-0.017-0.121-0.024-0.243-0.024-0.365v-1.991H37.813z M28.226,34.035
					c0.016-0.064,0.024-0.121,0.032-0.179c0.008-0.057,0.008-0.114,0.008-0.179v-1.682v-0.78l0.65,0.431
					c0.114,0.073,0.228,0.154,0.357,0.228c0.13,0.089,0.26,0.163,0.366,0.228l-0.422,0.723l-0.114-0.064v0.918
					c0,0.081,0,0.171-0.008,0.268c-0.016,0.09-0.024,0.18-0.049,0.261L28.226,34.035z"/>
				<path fill="#6B605D" d="M42.705,19.947c-0.22-0.089-0.326-0.333-0.236-0.544c0.082-0.219,0.325-0.325,0.537-0.236
					c0.203,0.073,0.389,0.203,0.535,0.398c0.131,0.163,0.22,0.366,0.269,0.625c0.114,0.634-0.009,2.145-0.423,3.339
					c-0.146,0.439-0.341,0.853-0.584,1.17c-0.277,0.366-0.602,0.618-1,0.691c-0.081,0.016-0.154,0.024-0.228,0.024
					c-0.333,1.804-0.853,3.177-1.625,4.314c-0.837,1.219-1.958,2.161-3.485,3.063c-0.309,0.179-0.991,0.528-1.828,0.764
					c-0.545,0.163-1.162,0.276-1.796,0.276c-0.617,0-1.235-0.105-1.788-0.26c-0.836-0.236-1.535-0.577-1.836-0.748
					c-1.357-0.804-2.454-1.673-3.323-2.868c-0.812-1.113-1.422-2.502-1.853-4.363c-0.065,0-0.13-0.008-0.187-0.017l-0.017-0.008
					c-0.52-0.098-0.951-0.496-1.284-1.032c-0.309-0.496-0.544-1.113-0.707-1.739l-0.008-0.024c-0.268-1.008-0.357-2.056-0.252-2.6
					c0.033-0.187,0.098-0.35,0.187-0.479l0,0c0.097-0.154,0.228-0.276,0.374-0.366c0.195-0.13,0.455-0.073,0.577,0.122
					c0.122,0.195,0.073,0.447-0.122,0.577c-0.049,0.033-0.089,0.073-0.122,0.122h-0.008l0,0c-0.024,0.049-0.049,0.105-0.065,0.179
					c-0.082,0.431,0.008,1.333,0.244,2.234l0.008,0.016c0.146,0.561,0.349,1.105,0.609,1.511c0.211,0.357,0.463,0.601,0.723,0.658
					h0.017c0.073,0.016,0.163,0.016,0.252-0.008l0.024-0.008c0.228-0.049,0.447,0.097,0.496,0.325
					c0.406,1.926,0.991,3.323,1.787,4.412c0.796,1.081,1.804,1.885,3.071,2.632c0.26,0.154,0.877,0.447,1.633,0.658
					c0.496,0.139,1.04,0.244,1.568,0.235c0.544,0,1.081-0.097,1.568-0.243c0.747-0.212,1.356-0.521,1.633-0.683
					c1.414-0.837,2.462-1.707,3.218-2.82c0.764-1.113,1.251-2.494,1.561-4.379l0,0c0-0.024,0.008-0.048,0.016-0.073
					c0.073-0.211,0.316-0.333,0.527-0.252c0.106,0.033,0.203,0.041,0.285,0.024c0.17-0.033,0.333-0.171,0.487-0.366
					c0.179-0.244,0.333-0.577,0.464-0.951c0.365-1.064,0.486-2.38,0.389-2.917c-0.023-0.114-0.064-0.203-0.113-0.26
					C42.834,20.012,42.77,19.971,42.705,19.947z"/>
				<path fill="#6B605D" d="M22.953,19.679c0.138,0.122,0.276,0.211,0.414,0.284l-0.187-5.257c0-0.228,0.179-0.422,0.406-0.431
					c0.073,0,0.138,0.017,0.203,0.041l0,0c2.145,1.057,5.03,0.488,8.084-0.114c2.689-0.528,5.501-1.081,8.174-0.625
					c0.154,0.024,0.3,0.082,0.438,0.154c0.139,0.082,0.268,0.179,0.382,0.292c0.041,0.041,0.065,0.073,0.081,0.114h0.008
					c1.122,2.194,1.105,2.787,1.082,4.412c-0.009,0.357-0.018,0.772-0.009,1.259v0.081c0.13-0.097,0.252-0.228,0.357-0.382
					c0.423-0.601,0.69-1.511,0.812-2.527v-0.008l0,0c0.122-1.04,0.081-2.169-0.114-3.177c-0.227-1.137-0.658-2.096-1.275-2.535
					l-0.008-0.008c-0.113-0.073-0.219-0.122-0.316-0.146s-0.195-0.024-0.285,0c-0.203,0.048-0.414-0.073-0.487-0.268l0,0
					c-0.325-0.926-1.048-1.617-1.925-2.104c-1.146-0.642-2.552-0.935-3.746-0.983h-0.008c-2.016-0.048-3.624,0.293-5.444,0.675
					c-0.455,0.097-0.926,0.195-1.34,0.276C28.242,8.71,28.226,8.71,28.218,8.71c-0.577,0.105-1.121,0.163-1.666,0.187
					c-0.569,0.016-1.121,0-1.714-0.073l-0.033-0.008c-0.666-0.098-1.438-0.284-2.169-0.569c-0.431-0.162-0.837-0.365-1.203-0.593
					c-0.268,0.958-0.325,1.836-0.244,2.608c0.114,1.162,0.528,2.096,0.983,2.73c0.098,0.13,0.098,0.309,0.024,0.439l-0.008,0.032
					l0,0l-0.032,0.082l-0.008,0.016c-0.333,0.886-0.463,2.267-0.284,3.551c0.138,1.056,0.479,2.023,1.072,2.551L22.953,19.679z
					 M23.01,20.719c-0.219-0.106-0.415-0.244-0.609-0.415l-0.024-0.016c-0.748-0.667-1.178-1.828-1.34-3.063
					c-0.195-1.405-0.049-2.933,0.325-3.94c-0.471-0.715-0.886-1.723-1.007-2.941c-0.098-1.023,0-2.202,0.447-3.485
					c0.016-0.057,0.041-0.105,0.081-0.154c0.155-0.179,0.415-0.203,0.593-0.049c0.39,0.325,0.91,0.593,1.462,0.812
					c0.667,0.26,1.381,0.431,1.991,0.52h0.016c0.553,0.073,1.064,0.089,1.576,0.073c0.504-0.016,1.016-0.082,1.552-0.171
					l0.016-0.008c0.512-0.098,0.935-0.187,1.333-0.276c1.869-0.39,3.518-0.739,5.638-0.691h0.017c1.3,0.049,2.853,0.382,4.12,1.089
					c0.949,0.528,1.746,1.268,2.186,2.251c0.097,0,0.194,0.016,0.3,0.041c0.195,0.041,0.398,0.13,0.593,0.268l0.017,0.016
					c0.812,0.569,1.349,1.723,1.617,3.047c0.22,1.097,0.26,2.324,0.13,3.453l0,0c-0.139,1.146-0.455,2.194-0.959,2.909
					c-0.365,0.512-0.82,0.853-1.365,0.967h-0.008c-0.016,0-0.041,0.008-0.072,0.008c-0.229,0-0.424-0.179-0.424-0.415l-0.008-0.357
					v-0.008l-0.008-0.357v-0.008c-0.008-0.503,0-0.918,0.008-1.283c0.025-1.446,0.033-1.991-0.967-3.957
					c-0.049-0.041-0.105-0.081-0.154-0.114c-0.057-0.033-0.113-0.049-0.17-0.057c-2.52-0.431-5.258,0.106-7.874,0.626
					c-2.925,0.577-5.704,1.121-7.995,0.3l0.179,5.143c0.008,0.041,0.008,0.073,0,0.114c-0.032,0.228-0.251,0.39-0.479,0.35
					C23.473,20.897,23.237,20.824,23.01,20.719z"/>
				<path fill="#6B605D" d="M32.361,38.812l-1.088,8.556h-0.845l1.105-8.661L32.361,38.812z M34.661,47.368l-1.089-8.556
					l0.828-0.105l1.105,8.661H34.661z"/>
				<path fill="#6B605D" d="M28.981,33.849l3.364,4.663l0.178,0.244L32.345,39l-2.632,3.721l-0.488,0.691l-0.251-0.805l-2.162-6.874
					l-0.13-0.415l0.422-0.113c0.008-0.008,0.358-0.431,0.675-0.796c0.276-0.317,0.528-0.602,0.65-0.675l0.325-0.203L28.981,33.849z
					 M31.492,38.764L28.6,34.742l-0.187,0.219c-0.236,0.269-0.496,0.569-0.715,0.781l1.82,5.809L31.492,38.764z"/>
				<path fill="#6B605D" d="M37.48,34.742l-2.975,4.014l2.057,2.811l1.828-5.824c-0.229-0.212-0.488-0.513-0.724-0.781L37.48,34.742
					z M33.653,38.512l3.445-4.672l0.228-0.309l0.333,0.203c0.122,0.073,0.365,0.357,0.642,0.675
					c0.316,0.365,0.666,0.788,0.674,0.796l0.317,0.082v0.316v0.008v0.057l-0.024,0.065l-2.152,6.882l-0.252,0.788l-0.488-0.666
					l-2.729-3.729l-0.179-0.252L33.653,38.512z"/>
				<polygon fill="#6B605D" points="32.638,54.063 36.311,42.363 37.115,42.615 33.442,54.307 				"/>
				<polygon fill="#6B605D" points="32.638,54.307 28.941,42.518 29.745,42.266 33.442,54.063 				"/>
				<path fill="#6B605D" d="M41.778,51.09c-0.235,0-0.423-0.188-0.423-0.414c0-0.236,0.188-0.424,0.423-0.424h5.281
					c0.235,0,0.423,0.188,0.423,0.424c0,0.227-0.188,0.414-0.423,0.414H41.778z"/>
				<path fill="#6B605D" d="M38.983,35.148l8.165,2.227l0.009,0.008c0.017,0,4.606,1.357,5.069,5.582l0.943,8.475
					c0.049,0.406,0.008,0.796-0.105,1.161c-0.123,0.366-0.317,0.707-0.594,1.016c-0.276,0.31-0.585,0.536-0.942,0.698
					c-0.35,0.155-0.739,0.236-1.146,0.236H15.713c-0.406,0-0.796-0.081-1.146-0.236c-0.357-0.162-0.666-0.389-0.942-0.698
					c-0.276-0.309-0.471-0.649-0.593-1.016c-0.114-0.365-0.154-0.755-0.105-1.161l0.942-8.475c0.463-4.225,5.054-5.582,5.07-5.582
					l0.008-0.008l8.157-2.227l0.228,0.805l-8.149,2.227l0,0c-0.008,0.008-4.079,1.201-4.485,4.874l-0.942,8.475
					c-0.032,0.292-0.008,0.569,0.073,0.82c0.089,0.252,0.228,0.496,0.415,0.707c0.195,0.22,0.422,0.382,0.666,0.495
					c0.236,0.106,0.512,0.163,0.804,0.163h34.669c0.293,0,0.568-0.057,0.805-0.163c0.243-0.113,0.471-0.275,0.658-0.495
					c0.194-0.211,0.341-0.455,0.422-0.707c0.073-0.251,0.105-0.528,0.073-0.82l-0.942-8.475c-0.406-3.673-4.477-4.866-4.485-4.874
					l0,0l-8.149-2.227L38.983,35.148z"/>
			</g>
		</g>
	</g>
</g>
</svg>
